<svg xmlns="http://www.w3.org/2000/svg" xmlns:xlink="http://www.w3.org/1999/xlink" version="1.1" id="Layer_1" x="0px" y="0px" width="100px" height="100px" viewBox="0 0 100 100" enable-background="new 0 0 100 100" xml:space="preserve">
<path d="M64.451,46.669c-1.046,0.933-2.155,1.797-3.32,2.586c-1.849-2.038-4.508-3.326-7.475-3.326  c-5.103,0-9.309,3.788-9.991,8.702c-0.036,0-0.072,0.002-0.108,0.002c-1.393,0-2.76-0.101-4.105-0.275  c-0.478,1.463-0.745,3.018-0.779,4.632c1.598,0.216,3.227,0.337,4.884,0.337c0.187,0,0.372-0.01,0.558-0.013  c1.365,3.961,5.116,6.812,9.541,6.812c5.577,0,10.098-4.521,10.098-10.099c0-0.918-0.133-1.802-0.362-2.646  c1.521-1.003,2.968-2.111,4.317-3.326C66.794,48.772,65.696,47.633,64.451,46.669z M60.304,56.02c0,3.665-2.972,6.637-6.637,6.637  s-6.636-2.972-6.636-6.637c0-3.664,2.971-6.636,6.636-6.636S60.304,52.355,60.304,56.02z M32.388,47.352  c-1.649-1.65-4.132-1.923-6.084-0.863c-2.885-4.345-4.226-9.4-4.067-14.418c1.251-0.061,2.487-0.551,3.442-1.505  c2.04-2.042,2.041-5.35,0.001-7.391c-0.336-0.336-0.716-0.596-1.109-0.821c1.182-2.512,2.783-4.875,4.859-6.951  c2.105-2.105,4.505-3.722,7.058-4.908c0.22,0.381,0.473,0.748,0.799,1.074c2.006,2.005,5.257,2.005,7.262,0  c0.932-0.932,1.413-2.135,1.479-3.355c5.03-0.174,10.101,1.156,14.459,4.041c-1.055,1.965-0.778,4.459,0.881,6.118  c1.66,1.66,4.152,1.938,6.119,0.881c2.874,4.343,4.206,9.394,4.044,14.405c-1.235,0.065-2.453,0.55-3.397,1.494  c-2.026,2.026-2.025,5.314-0.001,7.338c0.331,0.331,0.704,0.588,1.092,0.812c-0.159,0.339-0.345,0.668-0.519,1.001  c0.464,0.443,0.908,0.908,1.331,1.392c0.32-0.582,0.628-1.168,0.903-1.766c1.6,0.269,3.299-0.204,4.533-1.438  c2.027-2.027,2.027-5.313,0-7.341c-0.616-0.615-1.354-1.021-2.132-1.262c0.212-5.487-1.249-11.022-4.427-15.764  c1.799-2.038,1.747-5.142-0.206-7.094c-1.948-1.949-5.053-2.003-7.092-0.203c-4.758-3.189-10.315-4.649-15.821-4.424  c-0.239-0.766-0.639-1.492-1.246-2.099c-2.006-2.005-5.257-2.005-7.264,0.001c-1.217,1.217-1.684,2.893-1.423,4.472  c-2.793,1.278-5.42,3.037-7.72,5.336c-2.27,2.27-4.013,4.86-5.287,7.614c-1.611-0.271-3.323,0.205-4.565,1.447  c-2.04,2.041-2.041,5.35-0.001,7.392c0.619,0.617,1.358,1.024,2.139,1.267c-0.211,5.5,1.261,11.047,4.456,15.795  c-1.759,2.021-1.697,5.078,0.227,7.001c1.924,1.924,4.98,1.985,7.001,0.226c0.603,0.406,1.219,0.782,1.846,1.133  c0.104-0.638,0.235-1.264,0.396-1.882c-0.37-0.218-0.742-0.43-1.102-0.669C34.312,51.484,34.039,49.003,32.388,47.352z   M74.035,36.587c1.236,1.234,1.235,3.234,0,4.467c-1.231,1.231-3.231,1.233-4.467,0c-1.231-1.232-1.231-3.233,0.004-4.466  C70.805,35.356,72.806,35.356,74.035,36.587z M62.806,12.468c1.233-1.231,3.233-1.231,4.465-0.001c1.234,1.234,1.233,3.234,0,4.468  c-1.233,1.231-3.232,1.233-4.467,0C61.572,15.703,61.572,13.702,62.806,12.468z M38.686,5.702c1.233-1.231,3.234-1.231,4.464-0.001  c1.236,1.235,1.235,3.234,0,4.468c-1.232,1.231-3.232,1.233-4.466,0C37.452,8.937,37.452,6.936,38.686,5.702z M19.75,29.103  c-1.232-1.232-1.232-3.233,0.002-4.466c1.233-1.232,3.234-1.232,4.465-0.001c1.235,1.234,1.234,3.234,0,4.467  C22.984,30.334,20.984,30.336,19.75,29.103z M30.981,53.225c-1.232,1.23-3.232,1.233-4.467,0c-1.231-1.231-1.231-3.233,0.002-4.467  c1.233-1.232,3.234-1.232,4.465-0.001C32.217,49.992,32.216,51.99,30.981,53.225z M86.417,92.026L68.7,71.562  c0.121-0.208,0.106-0.475-0.056-0.675c-0.155-0.191-0.403-0.264-0.625-0.2c2.688-2.91,4.503-6.669,4.935-10.91  c1.06-10.411-6.521-19.708-16.931-20.767c-10.411-1.059-19.708,6.52-20.768,16.93c-1.059,10.412,6.521,19.708,16.931,20.768  c4.304,0.438,8.408-0.618,11.828-2.725c-0.084,0.197-0.064,0.433,0.082,0.612c0.163,0.2,0.424,0.266,0.649,0.189l16.445,21.437  c0.012,0.014,0.013,0.032,0.023,0.046c0.471,0.578,2.016,0.097,3.451-1.075C86.104,94.021,86.888,92.603,86.417,92.026z   M64.896,71.093c-7.252,5.913-17.927,4.827-23.839-2.426c-5.913-7.252-4.828-17.927,2.426-23.841  c7.252-5.913,17.926-4.826,23.839,2.427C73.235,54.506,72.149,65.18,64.896,71.093z M54.267,59.146c0,0.372-0.301,0.673-0.672,0.673  s-0.672-0.301-0.672-0.673c0-0.371,0.301-0.671,0.672-0.671S54.267,58.774,54.267,59.146z M54.462,52.367l-0.195,4.56  c0,0.37-0.301,0.671-0.672,0.671s-0.672-0.301-0.672-0.671l-0.196-4.56c0-0.479,0.391-0.867,0.868-0.867  C54.073,51.5,54.462,51.888,54.462,52.367z"/></svg>