<svg xmlns:dc="http://purl.org/dc/elements/1.1/" xmlns:cc="http://creativecommons.org/ns#" xmlns:rdf="http://www.w3.org/1999/02/22-rdf-syntax-ns#" xmlns:svg="http://www.w3.org/2000/svg" xmlns="http://www.w3.org/2000/svg" xmlns:sodipodi="http://sodipodi.sourceforge.net/DTD/sodipodi-0.dtd" xmlns:inkscape="http://www.inkscape.org/namespaces/inkscape" version="1.1" x="0px" y="0px" width="100px" height="100px" viewBox="0.0 0.0 100.0 100.0" enable-background="new 0 0 100 100" xml:space="preserve" id="svg2" inkscape:version="0.48.3.1 r9886" sodipodi:docname="book.svg"><metadata id="metadata130"><rdf:RDF><cc:Work rdf:about=""><dc:format>image/svg+xml</dc:format><dc:type rdf:resource="http://purl.org/dc/dcmitype/StillImage"/><dc:title/></cc:Work></rdf:RDF></metadata><defs id="defs128">






</defs><sodipodi:namedview pagecolor="#ffffff" bordercolor="#666666" borderopacity="1" objecttolerance="10" gridtolerance="10" guidetolerance="10" inkscape:pageopacity="0" inkscape:pageshadow="2" inkscape:window-width="1317" inkscape:window-height="744" id="namedview126" showgrid="false" inkscape:zoom="0.5" inkscape:cx="-192.63993" inkscape:cy="-66.983737" inkscape:window-x="49" inkscape:window-y="24" inkscape:window-maximized="1" inkscape:current-layer="Captions"/>
<g id="Captions">

















































































<path style="font-size:medium;font-style:normal;font-variant:normal;font-weight:normal;font-stretch:normal;text-indent:0;text-align:start;text-decoration:none;line-height:normal;letter-spacing:normal;word-spacing:normal;text-transform:none;direction:ltr;block-progression:tb;writing-mode:lr-tb;text-anchor:start;baseline-shift:baseline;color:#000000;fill:#000000;fill-opacity:1;stroke:none;stroke-width:4;marker:none;visibility:visible;display:inline;overflow:visible;enable-background:accumulate;font-family:Sans;-inkscape-font-specification:Sans" d="M 48.53125 8.96875 L 47.96875 9.46875 L 8.375 45.40625 L 5.8125 47.71875 C 5.6103031 47.80543 5.73385 48.159946 5.6875 48.375 L 5.6875 62.15625 L 5.6875 62.75 L 6.03125 63.25 C 6.03125 63.25 7.1426017 64.95186 8.78125 66.71875 C 10.286763 68.342085 12.192598 70.138495 14.71875 70.6875 L 16.40625 71.625 L 13.1875 75.6875 C 13.1875 75.6875 12.557106 76.453225 12.875 76.96875 C 13.192894 77.484274 14.1875 77.28125 14.1875 77.28125 L 19.5625 76.03125 L 19.65625 81.875 C 19.65625 81.875 19.499431 83.029518 20.09375 83.25 C 20.688069 83.470482 21.4375 82.5 21.4375 82.5 L 26.03125 76.90625 L 52.21875 91.3125 C 52.21875 91.3125 53.063532 91.792691 53.5625 91.71875 C 54.061467 91.64481 54.625 90.96875 54.625 90.96875 L 96.34375 48.375 L 93.46875 45.59375 L 52.8125 87.0625 L 28.625 73.75 L 29.8125 72.34375 C 30.757776 72.8476 31.372757 73.163754 32.9375 74 C 37.616687 76.500699 42.309497 79.002663 45.875 80.90625 C 47.657751 81.858044 49.145807 82.647022 50.21875 83.21875 C 51.028889 83.621066 52.030619 84.258436 52.46875 84.15625 C 52.906881 84.054065 53.0625 83.875 53.0625 83.875 L 53.625 83.34375 L 53.625 83.3125 L 90.59375 46.21875 L 90.875 45.90625 L 90.875 45.5 L 90.96875 36.625 C 90.97625 36.487211 90.95481 36.347916 90.90625 36.21875 L 92.6875 34.375 C 92.6875 34.375 93.539679 33.50436 93.375 32.59375 C 93.210322 31.683141 92.125 31.1875 92.125 31.1875 L 61.9375 16.59375 C 61.52632 15.667731 60.607121 13.725224 58.46875 11.78125 C 56.654985 10.132374 54.374088 9.5611246 52.5625 9.25 C 50.750912 8.9388754 49.28125 8.96875 49.28125 8.96875 L 48.53125 8.96875 z M 50 13.03125 C 50.385111 13.03795 50.819519 13.00623 51.875 13.1875 C 53.300276 13.432279 54.93786 13.983282 55.78125 14.75 C 57.685685 16.481305 58.625 18.84375 58.625 18.84375 L 58.90625 19.59375 L 59.625 19.9375 L 87.875 33.59375 L 53.40625 69.03125 L 20.8125 53.03125 C 20.128604 51.43852 18.139888 47.88773 13.6875 45.96875 L 50 13.03125 z M 51.71875 25.78125 L 51.15625 26.28125 L 49.125 28.25 A 1.0001 1.0001 0 1 0 50.5 29.6875 L 52 28.25 L 56.875 31.0625 L 56.90625 31.09375 L 56.9375 31.09375 L 68.25 36.5625 L 61 43.8125 L 44.75 35.5 L 48.21875 31.9375 A 1.0054782 1.0054782 0 1 0 46.78125 30.53125 L 42.375 35.09375 L 41.4375 36.0625 L 42.625 36.6875 L 60.75 45.90625 L 61.375 46.25 L 61.90625 45.71875 L 70.65625 36.96875 L 71.65625 35.96875 L 70.40625 35.34375 L 57.875 29.34375 L 57.78125 29.28125 L 52.34375 26.15625 L 51.71875 25.78125 z M 88.96875 38.1875 L 88.875 45.0625 L 52.90625 81.1875 L 53 73.28125 C 53 73.28125 53.750004 73.645873 54.21875 73.5625 C 54.687497 73.47913 55.25 72.84375 55.25 72.84375 L 88.96875 38.1875 z M 9.6875 48.90625 C 11.379821 49.158222 12.707414 49.713338 13.75 50.375 L 13.75 63.15625 C 13.75 63.15625 13.74103 63.516894 13.84375 63.6875 C 13.946469 63.858107 14.28125 64.03125 14.28125 64.03125 C 14.28125 64.03125 17.802201 65.921201 20 67.09375 L 18.9375 68.4375 L 16.5625 67.125 L 16.21875 66.9375 L 15.8125 66.90625 C 15.00279 66.813712 13.111403 65.501643 11.71875 64 C 10.5299 62.718109 9.9219164 61.808366 9.6875 61.46875 L 9.6875 48.90625 z M 15.75 52.09375 C 17.012454 53.592844 17.34375 55.03125 17.34375 55.03125 L 17.59375 55.90625 L 18.375 56.28125 L 51 72.3125 L 50.90625 81.34375 C 49.850784 80.781728 48.493795 80.053878 46.8125 79.15625 C 43.247484 77.252922 38.554062 74.719382 33.875 72.21875 C 32.48352 71.475101 31.919806 71.189669 31.09375 70.75 L 32.59375 68.9375 C 32.59375 68.9375 33.01551 68.450616 32.9375 68.0625 C 32.85949 67.674384 32.3125 67.4375 32.3125 67.4375 L 24.40625 62.90625 C 24.40625 62.90625 23.964747 62.569834 23.65625 62.625 C 23.347753 62.680167 23.125 63.15625 23.125 63.15625 L 21.28125 65.46875 C 19.180216 64.346443 15.90402 62.613605 15.75 62.53125 L 15.75 52.09375 z M 24.15625 65.0625 L 30.28125 68.5625 L 21.59375 79.15625 L 21.53125 74.75 L 21.53125 73.53125 L 20.3125 73.8125 L 16.53125 74.6875 L 24.15625 65.0625 z " id="path3001"/><path style="fill:none;stroke:#000000;stroke-width:4;stroke-linecap:round;stroke-linejoin:miter;stroke-miterlimit:4;stroke-opacity:1;stroke-dasharray:none" d="M 94.781808,47.145264 90.996189,45.247406" id="path3773" inkscape:connector-curvature="0" sodipodi:nodetypes="cc"/></g></svg>