<svg xmlns="http://www.w3.org/2000/svg" xmlns:xlink="http://www.w3.org/1999/xlink" version="1.1" id="Layer_1" x="0px" y="0px" width="100px" height="100px" viewBox="-10 -10 120 120" enable-background="new 0 0 100 100" xml:space="preserve">
<g>
	<path d="M4.797,7.721L4.797,7.721v63.067H45.05c0,0,0,7.26,0,8.443c0,1.766-1.29,5.342-6.279,5.342s-12.221,0.016-13.665,0.016   c-1.458,0-2.962,1.549-2.962,4.112c0,2.55,1.951,3.578,2.948,3.578c0.982,0,12.757,0,12.757,0s0.167-3.957,4.894-4.576   c0.104-0.016,0.204-0.031,0.312-0.041c0.311-0.031,0.634-0.049,0.981-0.049h11.927c0.349,0,0.672,0.018,0.981,0.049   c0.108,0.01,0.209,0.025,0.312,0.038c4.727,0.622,4.894,4.579,4.894,4.579s11.774,0,12.758,0c0.998,0,2.947-1.028,2.947-3.578   c0-2.563-1.504-4.112-2.962-4.112c-1.442,0-8.675-0.016-13.663-0.016c-4.99,0-6.279-3.576-6.279-5.342c0-1.184,0-8.443,0-8.443   h40.253V7.721H4.797z M87.526,63.11H12.472V15.397h75.054V63.11z"/>
	<g>
		<g>
			<g>
				<rect x="15.733" y="18.814" width="1.32" height="7.371"/>
			</g>
			<g>
				<rect x="27.063" y="18.814" width="1.32" height="7.371"/>
			</g>
			<g>
				<rect x="29.704" y="18.814" width="1.32" height="7.371"/>
			</g>
			<g>
				<rect x="32.343" y="18.814" width="1.32" height="7.371"/>
			</g>
			<g>
				<rect x="55.003" y="18.814" width="1.32" height="7.371"/>
			</g>
			<g>
				<rect x="66.333" y="18.814" width="1.319" height="7.371"/>
			</g>
			<g>
				<rect x="68.973" y="18.814" width="1.32" height="7.371"/>
			</g>
			<g>
				<rect x="71.612" y="18.814" width="1.32" height="7.371"/>
			</g>
			<g>
				<rect x="74.253" y="18.814" width="1.32" height="7.371"/>
			</g>
			<g>
				<rect x="52.363" y="18.814" width="1.319" height="7.371"/>
			</g>
			<g>
				<path d="M22.058,20.134c1.305,0,2.366,1.061,2.366,2.366s-1.061,2.365-2.366,2.365c-1.303,0-2.364-1.061-2.364-2.365      S20.754,20.134,22.058,20.134 M22.058,18.814c-2.035,0-3.684,1.65-3.684,3.686c0,2.035,1.649,3.686,3.684,3.686      c2.036,0,3.686-1.65,3.686-3.686C25.743,20.464,24.093,18.814,22.058,18.814L22.058,18.814z"/>
			</g>
			<g>
				<path d="M38.667,20.134c1.305,0,2.366,1.061,2.366,2.366s-1.061,2.365-2.366,2.365c-1.303,0-2.364-1.061-2.364-2.365      S37.364,20.134,38.667,20.134 M38.667,18.814c-2.035,0-3.684,1.65-3.684,3.686c0,2.035,1.649,3.686,3.684,3.686      c2.036,0,3.686-1.65,3.686-3.686C42.353,20.464,40.703,18.814,38.667,18.814L38.667,18.814z"/>
			</g>
			<g>
				<path d="M61.327,20.134c1.305,0,2.367,1.061,2.367,2.366s-1.063,2.365-2.367,2.365c-1.302,0-2.364-1.061-2.364-2.365      S60.025,20.134,61.327,20.134 M61.327,18.814c-2.034,0-3.685,1.65-3.685,3.686c0,2.035,1.65,3.686,3.685,3.686      c2.037,0,3.687-1.65,3.687-3.686C65.014,20.464,63.364,18.814,61.327,18.814L61.327,18.814z"/>
			</g>
			<g>
				<path d="M80.577,20.134c1.305,0,2.366,1.061,2.366,2.366s-1.062,2.365-2.366,2.365c-1.302,0-2.364-1.061-2.364-2.365      S79.275,20.134,80.577,20.134 M80.577,18.814c-2.034,0-3.685,1.65-3.685,3.686c0,2.035,1.65,3.686,3.685,3.686      c2.037,0,3.687-1.65,3.687-3.686C84.264,20.464,82.614,18.814,80.577,18.814L80.577,18.814z"/>
			</g>
			<g>
				<path d="M47.357,20.134c1.305,0,2.365,1.061,2.365,2.366s-1.061,2.365-2.365,2.365c-1.303,0-2.364-1.061-2.364-2.365      S46.054,20.134,47.357,20.134 M47.357,18.814c-2.036,0-3.684,1.65-3.684,3.686c0,2.035,1.648,3.686,3.684,3.686      s3.686-1.65,3.686-3.686C51.043,20.464,49.393,18.814,47.357,18.814L47.357,18.814z"/>
			</g>
		</g>
		<g>
			<g>
				<rect x="15.733" y="41.475" width="1.32" height="7.371"/>
			</g>
			<g>
				<rect x="27.063" y="41.475" width="1.32" height="7.371"/>
			</g>
			<g>
				<rect x="29.704" y="41.475" width="1.32" height="7.371"/>
			</g>
			<g>
				<rect x="32.343" y="41.475" width="1.32" height="7.371"/>
			</g>
			<g>
				<rect x="55.003" y="41.475" width="1.32" height="7.371"/>
			</g>
			<g>
				<rect x="66.333" y="41.475" width="1.319" height="7.371"/>
			</g>
			<g>
				<rect x="68.973" y="41.475" width="1.32" height="7.371"/>
			</g>
			<g>
				<rect x="71.612" y="41.475" width="1.32" height="7.371"/>
			</g>
			<g>
				<rect x="74.253" y="41.475" width="1.32" height="7.371"/>
			</g>
			<g>
				<rect x="52.363" y="41.475" width="1.319" height="7.371"/>
			</g>
			<g>
				<path d="M22.058,42.795c1.305,0,2.366,1.061,2.366,2.365s-1.061,2.366-2.366,2.366c-1.303,0-2.364-1.061-2.364-2.366      S20.754,42.795,22.058,42.795 M22.058,41.475c-2.035,0-3.684,1.65-3.684,3.686s1.649,3.686,3.684,3.686      c2.036,0,3.686-1.65,3.686-3.686S24.093,41.475,22.058,41.475L22.058,41.475z"/>
			</g>
			<g>
				<path d="M38.667,42.795c1.305,0,2.366,1.061,2.366,2.365s-1.061,2.366-2.366,2.366c-1.303,0-2.364-1.061-2.364-2.366      S37.364,42.795,38.667,42.795 M38.667,41.475c-2.035,0-3.684,1.65-3.684,3.686s1.649,3.686,3.684,3.686      c2.036,0,3.686-1.65,3.686-3.686S40.703,41.475,38.667,41.475L38.667,41.475z"/>
			</g>
			<g>
				<path d="M61.327,42.795c1.305,0,2.367,1.061,2.367,2.365s-1.063,2.366-2.367,2.366c-1.302,0-2.364-1.061-2.364-2.366      S60.025,42.795,61.327,42.795 M61.327,41.475c-2.034,0-3.685,1.65-3.685,3.686s1.65,3.686,3.685,3.686      c2.037,0,3.687-1.65,3.687-3.686S63.364,41.475,61.327,41.475L61.327,41.475z"/>
			</g>
			<g>
				<path d="M80.577,42.795c1.305,0,2.366,1.061,2.366,2.365s-1.062,2.366-2.366,2.366c-1.302,0-2.364-1.061-2.364-2.366      S79.275,42.795,80.577,42.795 M80.577,41.475c-2.034,0-3.685,1.65-3.685,3.686s1.65,3.686,3.685,3.686      c2.037,0,3.687-1.65,3.687-3.686S82.614,41.475,80.577,41.475L80.577,41.475z"/>
			</g>
			<g>
				<path d="M47.357,42.795c1.305,0,2.365,1.061,2.365,2.365s-1.061,2.366-2.365,2.366c-1.303,0-2.364-1.061-2.364-2.366      S46.054,42.795,47.357,42.795 M47.357,41.475c-2.036,0-3.684,1.65-3.684,3.686s1.648,3.686,3.684,3.686s3.686-1.65,3.686-3.686      S49.393,41.475,47.357,41.475L47.357,41.475z"/>
			</g>
		</g>
		<g>
			<g>
				<rect x="16.118" y="30.146" width="1.32" height="7.37"/>
			</g>
			<g>
				<rect x="27.447" y="30.146" width="1.32" height="7.37"/>
			</g>
			<g>
				<rect x="30.087" y="30.146" width="1.32" height="7.37"/>
			</g>
			<g>
				<rect x="51.978" y="30.146" width="1.32" height="7.37"/>
			</g>
			<g>
				<rect x="63.309" y="30.146" width="1.32" height="7.37"/>
			</g>
			<g>
				<rect x="65.948" y="30.146" width="1.32" height="7.37"/>
			</g>
			<g>
				<rect x="68.589" y="30.146" width="1.319" height="7.37"/>
			</g>
			<g>
				<rect x="32.728" y="30.146" width="1.32" height="7.37"/>
			</g>
			<g>
				<rect x="35.368" y="30.146" width="1.32" height="7.37"/>
			</g>
			<g>
				<rect x="38.008" y="30.146" width="1.32" height="7.37"/>
			</g>
			<g>
				<rect x="71.229" y="30.146" width="1.32" height="7.37"/>
			</g>
			<g>
				<rect x="82.56" y="30.146" width="1.32" height="7.37"/>
			</g>
			<g>
				<rect x="49.337" y="30.146" width="1.32" height="7.37"/>
			</g>
			<g>
				<path d="M22.442,31.465c1.305,0,2.366,1.061,2.366,2.364c0,1.305-1.061,2.366-2.366,2.366c-1.303,0-2.364-1.061-2.364-2.366      C20.078,32.526,21.139,31.465,22.442,31.465 M22.442,30.146c-2.035,0-3.684,1.65-3.684,3.684c0,2.036,1.649,3.686,3.684,3.686      c2.036,0,3.686-1.65,3.686-3.686C26.127,31.795,24.478,30.146,22.442,30.146L22.442,30.146z"/>
			</g>
			<g>
				<path d="M44.332,31.465c1.304,0,2.365,1.061,2.365,2.364c0,1.305-1.061,2.366-2.365,2.366c-1.303,0-2.364-1.061-2.364-2.366      C41.968,32.526,43.029,31.465,44.332,31.465 M44.332,30.146c-2.036,0-3.685,1.65-3.685,3.684c0,2.036,1.649,3.686,3.685,3.686      c2.035,0,3.686-1.65,3.686-3.686C48.018,31.795,46.367,30.146,44.332,30.146L44.332,30.146z"/>
			</g>
			<g>
				<path d="M58.302,31.465c1.305,0,2.367,1.061,2.367,2.364c0,1.305-1.063,2.366-2.367,2.366c-1.302,0-2.364-1.061-2.364-2.366      C55.938,32.526,57,31.465,58.302,31.465 M58.302,30.146c-2.034,0-3.685,1.65-3.685,3.684c0,2.036,1.65,3.686,3.685,3.686      c2.037,0,3.687-1.65,3.687-3.686C61.988,31.795,60.339,30.146,58.302,30.146L58.302,30.146z"/>
			</g>
			<g>
				<path d="M77.553,31.465c1.305,0,2.367,1.061,2.367,2.364c0,1.305-1.063,2.366-2.367,2.366c-1.302,0-2.364-1.061-2.364-2.366      C75.188,32.526,76.251,31.465,77.553,31.465 M77.553,30.146c-2.034,0-3.684,1.65-3.684,3.684c0,2.036,1.649,3.686,3.684,3.686      c2.037,0,3.687-1.65,3.687-3.686C81.239,31.795,79.59,30.146,77.553,30.146L77.553,30.146z"/>
			</g>
		</g>
		<g>
			<g>
				<rect x="16.118" y="52.807" width="1.32" height="7.369"/>
			</g>
			<g>
				<rect x="27.447" y="52.807" width="1.32" height="7.369"/>
			</g>
			<g>
				<rect x="30.087" y="52.807" width="1.32" height="7.369"/>
			</g>
			<g>
				<rect x="51.978" y="52.807" width="1.32" height="7.369"/>
			</g>
			<g>
				<rect x="63.309" y="52.807" width="1.32" height="7.369"/>
			</g>
			<g>
				<rect x="65.948" y="52.807" width="1.32" height="7.369"/>
			</g>
			<g>
				<rect x="68.589" y="52.807" width="1.319" height="7.369"/>
			</g>
			<g>
				<rect x="32.728" y="52.807" width="1.32" height="7.369"/>
			</g>
			<g>
				<rect x="35.368" y="52.807" width="1.32" height="7.369"/>
			</g>
			<g>
				<rect x="38.008" y="52.807" width="1.32" height="7.369"/>
			</g>
			<g>
				<rect x="71.229" y="52.807" width="1.32" height="7.369"/>
			</g>
			<g>
				<rect x="82.56" y="52.807" width="1.32" height="7.369"/>
			</g>
			<g>
				<rect x="49.337" y="52.807" width="1.32" height="7.369"/>
			</g>
			<g>
				<path d="M22.442,54.126c1.305,0,2.366,1.062,2.366,2.363c0,1.305-1.061,2.366-2.366,2.366c-1.303,0-2.364-1.062-2.364-2.366      C20.078,55.188,21.139,54.126,22.442,54.126 M22.442,52.807c-2.035,0-3.684,1.649-3.684,3.683c0,2.037,1.649,3.687,3.684,3.687      c2.036,0,3.686-1.649,3.686-3.687C26.127,54.456,24.478,52.807,22.442,52.807L22.442,52.807z"/>
			</g>
			<g>
				<path d="M44.332,54.126c1.304,0,2.365,1.062,2.365,2.363c0,1.305-1.061,2.366-2.365,2.366c-1.303,0-2.364-1.062-2.364-2.366      C41.968,55.188,43.029,54.126,44.332,54.126 M44.332,52.807c-2.036,0-3.685,1.649-3.685,3.683c0,2.037,1.649,3.687,3.685,3.687      c2.035,0,3.686-1.649,3.686-3.687C48.018,54.456,46.367,52.807,44.332,52.807L44.332,52.807z"/>
			</g>
			<g>
				<path d="M58.302,54.126c1.305,0,2.367,1.062,2.367,2.363c0,1.305-1.063,2.366-2.367,2.366c-1.302,0-2.364-1.062-2.364-2.366      C55.938,55.188,57,54.126,58.302,54.126 M58.302,52.807c-2.034,0-3.685,1.649-3.685,3.683c0,2.037,1.65,3.687,3.685,3.687      c2.037,0,3.687-1.649,3.687-3.687C61.988,54.456,60.339,52.807,58.302,52.807L58.302,52.807z"/>
			</g>
			<g>
				<path d="M77.553,54.126c1.305,0,2.367,1.062,2.367,2.363c0,1.305-1.063,2.366-2.367,2.366c-1.302,0-2.364-1.062-2.364-2.366      C75.188,55.188,76.251,54.126,77.553,54.126 M77.553,52.807c-2.034,0-3.684,1.649-3.684,3.683c0,2.037,1.649,3.687,3.684,3.687      c2.037,0,3.687-1.649,3.687-3.687C81.239,54.456,79.59,52.807,77.553,52.807L77.553,52.807z"/>
			</g>
		</g>
	</g>
</g>
</svg>