<svg xmlns="http://www.w3.org/2000/svg" xmlns:xlink="http://www.w3.org/1999/xlink" version="1.1" id="Capa_7" x="0px" y="0px" width="100px" height="100px" viewBox="0.0 0.0 100.0 100.0" enable-background="new 0 0 100 100" xml:space="preserve">
<g>
	<polygon points="89.677,13.574 89.677,41.962 31.32,48.139 31.32,60.856 33.897,60.856 34.527,89.699 38.061,89.699 38.691,60.856    89.677,60.856 92.106,60.856 92.736,89.699 96.271,89.699 96.9,60.856 100.001,60.856 100.001,40.871 100.001,13.574  "/>
	<g>
		<path d="M27.022,24.703c3.905-1.618,5.763-6.09,4.141-10.007c-1.618-3.903-6.09-5.759-10.002-4.144    c-3.915,1.62-5.767,6.1-4.153,10.003C18.629,24.463,23.106,26.322,27.022,24.703z"/>
		<path d="M25.495,42.927l-2.466-12.421l-0.098,0.02c-0.608-1.649-1.863-3.049-3.626-3.756c-3.323-1.328-7.093,0.286-8.423,3.608    l-7.66,19.144c-0.367,0.918-0.49,1.866-0.434,2.789l-0.021,0.003l0.867,15.544L0,88.155l5.949,1.365l5.705-20.404    c0.084-0.367,0.117-0.742,0.096-1.116l-0.192-3.472l0.849,2.882l0.813,22.584l7.005,0.036l0.274-23.276    c-0.004-0.371-0.06-0.741-0.166-1.099l-4.078-13.828l2.342-5.853c-0.03-0.108-0.074-0.209-0.096-0.319l-0.966-9.547l1.86,9.371    c0.165,0.827,0.644,1.559,1.339,2.037l11.843,7.165l2.748-3.989L25.495,42.927z"/>
	</g>
</g></svg>