<svg xmlns="http://www.w3.org/2000/svg" xmlns:xlink="http://www.w3.org/1999/xlink" version="1.1" id="Your_Icon" x="0px" y="0px" viewBox="0.0 0.0 100.0 100.0" enable-background="new 0 0 100 100" xml:space="preserve" height="100px" width="100px">
<g>
	<path d="M50.042,5.03c-24.813,0-45,20.187-45,45c0,24.812,20.186,44.999,45,44.999s45-20.187,45-44.999   C95.042,25.217,74.855,5.03,50.042,5.03z M50.042,72.607c-12.449,0-22.577-10.128-22.577-22.577s10.128-22.578,22.577-22.578   s22.577,10.129,22.577,22.578S62.49,72.607,50.042,72.607z M11.109,50.031c0-1.618,0.111-3.209,0.303-4.776h11.949   c-0.278,1.553-0.447,3.144-0.447,4.776c0,1.631,0.17,3.221,0.447,4.774H11.413C11.22,53.239,11.109,51.648,11.109,50.031z    M76.722,45.255h11.949c0.193,1.566,0.303,3.158,0.303,4.776c0,1.617-0.111,3.208-0.303,4.774l-11.949-0.002   c0.277-1.552,0.447-3.141,0.447-4.772C77.169,48.399,76.999,46.808,76.722,45.255z M88.187,42.221H76.012   c-2.617-8.686-9.475-15.544-18.161-18.161V11.885C73.065,14.996,85.077,27.008,88.187,42.221z M54.817,11.401V23.35   c-1.553-0.278-3.144-0.447-4.776-0.447c-1.632,0-3.222,0.17-4.775,0.447l0.001-11.949c1.566-0.193,3.157-0.303,4.774-0.303   C51.659,11.098,53.251,11.208,54.817,11.401z M42.234,11.885L42.233,24.06c-8.686,2.617-15.544,9.475-18.161,18.162H11.897   C15.007,27.007,27.019,14.995,42.234,11.885z M11.897,57.839h12.175c2.617,8.687,9.474,15.545,18.161,18.162v12.174   C27.019,85.065,15.006,73.053,11.897,57.839z M45.267,88.659V76.711c1.553,0.277,3.143,0.447,4.775,0.447   c1.632,0,3.222-0.17,4.776-0.447v11.949c-1.566,0.193-3.158,0.303-4.776,0.303C48.424,88.962,46.833,88.852,45.267,88.659z    M57.851,88.175V76c8.687-2.617,15.546-9.476,18.162-18.164l12.174,0.002C85.078,73.053,73.066,85.065,57.851,88.175z"/>
	<path d="M63.566,45.184h-8.016v-8.016c0-0.764-0.619-1.383-1.383-1.383h-8.252c-0.764,0-1.383,0.619-1.383,1.383v8.016h-8.016   c-0.764,0-1.383,0.619-1.383,1.383v8.251c0,0.764,0.619,1.383,1.383,1.383h8.016v8.016c0,0.764,0.619,1.383,1.383,1.383h8.252   c0.764,0,1.383-0.619,1.383-1.383V56.2h8.016c0.764,0,1.383-0.619,1.383-1.383v-8.251C64.949,45.803,64.33,45.184,63.566,45.184z"/>
</g></svg>