<svg xmlns="http://www.w3.org/2000/svg" xmlns:xlink="http://www.w3.org/1999/xlink" version="1.1" id="Layer_1" x="0px" y="0px" width="81.946px" height="100px" viewBox="0 0 81.946 100" enable-background="new 0 0 81.946 100" xml:space="preserve">
<g>
	<path d="M34.723,27.777C18.056,27.777,8.333,37.499,0,50c0,0,6.944-2.778,11.111-2.778c4.167,0,11.111,2.778,11.111,2.778   s5.853-2.336,11.111-2.719v15.417c0.446-0.117,0.906-0.198,1.389-0.198s0.942,0.081,1.389,0.198V47.28   C41.37,47.664,47.223,50,47.223,50s6.944-2.778,11.111-2.778S69.446,50,69.446,50C61.113,37.499,51.39,27.777,34.723,27.777z"/>
	<path d="M13.839,1.759c0.205-0.739-0.229-1.505-0.969-1.71c-0.732-0.199-1.502,0.227-1.709,0.968L0.354,40.043   c1.314-1.647,2.717-3.245,4.206-4.775L13.839,1.759z"/>
	<path d="M16.786,26.223l6.775-24.464c0.205-0.739-0.229-1.505-0.968-1.71c-0.731-0.199-1.503,0.227-1.709,0.968l-7.495,27.064   C14.475,27.409,15.613,26.796,16.786,26.223z"/>
	<path d="M33.283,1.759c0.205-0.739-0.229-1.505-0.968-1.71c-0.732-0.199-1.504,0.227-1.709,0.968l-6.208,22.418   c0.992-0.245,2.01-0.455,3.057-0.628L33.283,1.759z"/>
	<path d="M37.312,22.322l5.693-20.563c0.206-0.739-0.229-1.505-0.968-1.71c-0.729-0.199-1.502,0.227-1.709,0.968l-5.874,21.215   c0.091,0,0.176-0.011,0.269-0.011C35.609,22.221,36.458,22.275,37.312,22.322z"/>
	<path d="M52.727,1.759c0.207-0.739-0.228-1.505-0.968-1.71c-0.73-0.199-1.503,0.227-1.709,0.968l-6.142,22.184   c0.919,0.199,1.817,0.426,2.693,0.682L52.727,1.759z"/>
	<path d="M62.45,1.759c0.206-0.739-0.228-1.505-0.969-1.71c-0.732-0.199-1.503,0.227-1.709,0.968l-6.996,25.263   c0.86,0.425,1.698,0.875,2.51,1.353L62.45,1.759z"/>
	<path d="M63.326,33.708l8.847-31.949c0.206-0.739-0.229-1.505-0.969-1.71c-0.729-0.199-1.503,0.227-1.709,0.968l-8.482,30.638   C61.804,32.318,62.58,33.001,63.326,33.708z"/>
	<path d="M80.926,0.049c-0.729-0.199-1.503,0.227-1.709,0.968L68.581,39.427c0.732,0.896,1.445,1.802,2.13,2.72L81.894,1.759   C82.101,1.02,81.667,0.254,80.926,0.049z"/>
	<circle cx="15.278" cy="70.833" r="6.944"/>
	<path d="M35.509,65.404c-0.032-0.01-0.062-0.021-0.094-0.029c-0.223-0.058-0.452-0.098-0.692-0.098s-0.47,0.04-0.692,0.098   c-0.032,0.009-0.063,0.02-0.096,0.029c-1.147,0.342-1.99,1.393-1.99,2.651c0,6.893-5.607,12.5-12.5,12.5H4.167   C1.865,80.555,0,82.42,0,84.722V100h5.556v-11.11h2.778V100h13.889v-9.722c0.352-3.068,3.394-5.087,4.975-5.941   c0.31-0.147,0.62-0.287,0.918-0.453c0.012-0.005,0.034-0.013,0.034-0.013l-0.013,0.002c5.576-3.077,9.364-9.012,9.364-15.817   C37.5,66.796,36.657,65.745,35.509,65.404z"/>
</g>
</svg>