<svg xmlns="http://www.w3.org/2000/svg" xmlns:xlink="http://www.w3.org/1999/xlink" version="1.1" id="Layer_1" x="0px" y="0px" width="50px" height="50px" viewBox="0 0 50.0 50.0" enable-background="new 0 0 50 50" xml:space="preserve">
<g>
	<path fill="#000000" d="M0.525,8.476c0,0,2.796,1.966,12.861-2.238c0,0,10.313-5.56,7.331,3.051c0,0,0.745,1.56,2.484,2.034   l0.249,5.491c0,0-3.604-3.253-8.14,0.611C15.312,17.425,0.897,13.561,0.525,8.476z"/>
	<path fill="#000000" d="M49.475,8.274c0,0-2.797,1.966-12.861-2.237c0,0-10.313-5.561-7.331,3.051c0,0-0.746,1.559-2.485,2.033   l-0.249,5.492c0,0,3.604-3.254,8.14,0.611C34.688,17.225,49.102,13.359,49.475,8.274z"/>
	<path fill="#000000" d="M27.907,16.566c6.599,0.871,3.165,3.403,1.635,4.327c-0.98-0.56-2.172-0.929-3.476-1.042l0.192-11.961   c1.032-0.537,1.746-1.639,1.746-2.924c0-1.811-1.405-3.277-3.14-3.277s-3.141,1.467-3.141,3.277c0,1.33,0.763,2.47,1.853,2.984   l0.6,11.918c-1.194,0.141-2.282,0.501-3.194,1.021c-1.493-0.889-5.126-3.481,1.57-4.366c0,0-11.298-1.541-3.467,5.979   c0.013,0.006,0.022,0.01,0.035,0.016c-0.487,0.684-0.79,1.444-0.79,2.266c0,1.783,1.312,3.334,3.268,4.215   c-0.672,0.59-1.093,1.336-1.093,2.158c0,1.379,1.152,2.545,2.79,3.082c-0.644,0.42-1.055,1.019-1.055,1.689   c0,1.178,1.253,2.139,2.858,2.271l0.508,10.112l0.164-10.107c1.636-0.111,2.92-1.081,2.92-2.275c0-0.721-0.474-1.355-1.201-1.777   c1.495-0.572,2.521-1.689,2.521-2.994c0-0.822-0.421-1.568-1.094-2.158c1.956-0.881,3.269-2.432,3.269-4.215   c0-0.82-0.301-1.582-0.789-2.264C39.178,15.028,27.907,16.566,27.907,16.566z M21.312,24.883c0-1.086,1.28-1.992,3.005-2.252   l0.229,4.543C22.703,26.964,21.312,26.02,21.312,24.883z M22.872,31.375c0-0.659,0.772-1.209,1.815-1.371l0.139,2.767   C23.713,32.638,22.872,32.064,22.872,31.375z M23.804,35.928c0-0.508,0.48-0.92,1.128-1.061l0.107,2.135   C24.338,36.888,23.804,36.461,23.804,35.928z M25.79,36.994l0.034-2.129c0.653,0.139,1.141,0.553,1.141,1.063   C26.965,36.446,26.46,36.864,25.79,36.994z M25.857,32.76l0.046-2.762c1.061,0.154,1.85,0.709,1.85,1.377   C27.753,32.051,26.941,32.615,25.857,32.76z M25.948,27.182l0.074-4.592c1.87,0.197,3.292,1.145,3.292,2.293   C29.314,26.046,27.854,27.002,25.948,27.182z"/>
</g></svg>