<svg xmlns="http://www.w3.org/2000/svg" xmlns:xlink="http://www.w3.org/1999/xlink" version="1.1" id="Your_Icon" x="0px" y="0px" width="100px" height="100px" viewBox="0 0 100.0 100.0" enable-background="new 0 0 100 100" xml:space="preserve">
<g>
	<g>
		<g>
			<g>
			</g>
		</g>
		<g>
		</g>
	</g>
</g>
<path fill="#000000" d="M93.119,41.763c-1.965-4.271-8.069-5.682-17.52-6.117c-1.441-2.544-3.715-4.299-6.422-4.686  c-0.367-0.052-0.744-0.08-1.118-0.08c-3.08,0-5.944,1.783-7.888,4.6c-0.414,0.002-0.832,0.004-1.252,0.008  c-1.634-3.895-4.895-6.558-8.643-6.558c-3.733,0-6.979,2.639-8.62,6.505c-0.444-0.008-0.886-0.015-1.322-0.021  c-1.942-2.778-4.784-4.533-7.84-4.533c-0.373,0-0.75,0.028-1.119,0.081c-2.626,0.375-4.831,1.989-6.271,4.374  c-9.283,0.269-15.417,1.606-17.774,6.428C-3.072,63.046,26.238,70.787,50.225,71.064C72.196,71.319,103.017,63.286,93.119,41.763z   M89.234,43.834c0.211-0.127,0.404-0.229,0.563-0.314c0.319-0.174,0.516-0.263,0.516-0.263s-0.112,0.176-0.336,0.468  c-0.112,0.145-0.247,0.325-0.416,0.521c-0.156,0.21-0.376,0.395-0.607,0.611c-0.235,0.208-0.479,0.462-0.773,0.671  c-0.294,0.209-0.609,0.428-0.939,0.646c-0.334,0.217-0.698,0.395-1.065,0.587c-0.364,0.201-0.751,0.36-1.139,0.515  c-0.392,0.146-0.775,0.319-1.169,0.429c-0.39,0.122-0.777,0.232-1.153,0.334c-0.373,0.109-0.745,0.171-1.095,0.243  c-0.35,0.069-0.683,0.121-0.99,0.168c-0.612,0.084-1.13,0.118-1.495,0.138c-0.364,0.019-0.577,0.014-0.577,0.014  s0.182-0.109,0.507-0.276c0.324-0.166,0.792-0.394,1.36-0.633c0.279-0.128,0.58-0.266,0.902-0.398  c0.32-0.138,0.664-0.259,1.012-0.409c0.348-0.146,0.708-0.292,1.077-0.431c0.373-0.135,0.731-0.304,1.103-0.449  c0.374-0.141,0.742-0.29,1.095-0.452c0.353-0.163,0.719-0.291,1.051-0.452c0.332-0.164,0.657-0.313,0.972-0.452  c0.314-0.14,0.589-0.305,0.862-0.436C88.76,44.067,89.029,43.968,89.234,43.834z M47.509,53.906  c-1.046-0.024-2.177,0.037-3.276-0.023c-1.098-0.051-2.177-0.155-3.208-0.342c-1.029-0.19-2.011-0.438-2.92-0.722  c-0.912-0.283-1.748-0.617-2.505-0.94c-0.758-0.321-1.438-0.638-2.04-0.915c-0.602-0.274-1.131-0.492-1.576-0.648  c-0.444-0.155-0.808-0.246-1.056-0.285c-0.251-0.043-0.388-0.055-0.388-0.055s0.136-0.012,0.393-0.01  c0.259-0.002,0.636,0.035,1.112,0.125c0.952,0.178,2.256,0.63,3.801,1.113c0.774,0.242,1.619,0.461,2.513,0.668  c0.895,0.201,1.848,0.356,2.838,0.455c0.989,0.103,2.015,0.15,3.059,0.134c1.044-0.008,2.085-0.118,3.214-0.192  c1.131-0.068,2.264-0.055,3.388,0.104c1.121,0.146,2.218,0.431,3.223,0.82c1.01,0.381,1.911,0.878,2.736,1.345  c0.832,0.462,1.562,0.959,2.259,1.372c0.688,0.429,1.316,0.82,1.885,1.153c0.56,0.35,1.067,0.618,1.478,0.866  c0.832,0.469,1.311,0.749,1.311,0.749s-0.136-0.023-0.391-0.069c-0.257-0.044-0.625-0.125-1.096-0.242  c-0.472-0.113-1.032-0.286-1.675-0.495c-0.636-0.224-1.349-0.492-2.107-0.818c-0.754-0.339-1.572-0.693-2.399-1.094  c-0.834-0.393-1.709-0.765-2.618-1.081c-0.908-0.315-1.864-0.558-2.865-0.708C49.601,54.012,48.552,53.938,47.509,53.906z   M49.167,55.624c0,0-0.319,0.199-0.896,0.513c-0.289,0.156-0.639,0.351-1.051,0.555c-0.416,0.191-0.893,0.394-1.419,0.6  c-0.521,0.23-1.112,0.402-1.737,0.594c-0.621,0.207-1.306,0.32-2.009,0.467c-0.352,0.079-0.719,0.098-1.087,0.146  c-0.368,0.046-0.743,0.09-1.123,0.089c-0.379,0.007-0.762,0.035-1.145,0.021c-0.382-0.019-0.766-0.036-1.15-0.055  c-0.759-0.076-1.517-0.161-2.243-0.291c-0.728-0.119-1.434-0.267-2.104-0.398c-0.676-0.138-1.316-0.257-1.93-0.371  c-0.611-0.096-1.19-0.211-1.729-0.266c-0.543-0.076-1.034-0.119-1.476-0.154c-0.223-0.021-0.431-0.04-0.624-0.058  c-0.197-0.007-0.378-0.015-0.542-0.021c-0.654-0.026-1.03-0.062-1.03-0.062s0.358-0.121,0.989-0.298  c0.158-0.043,0.333-0.09,0.522-0.143c0.194-0.044,0.407-0.074,0.636-0.115c0.229-0.038,0.476-0.08,0.733-0.125  c0.259-0.04,0.53-0.045,0.815-0.07c0.57-0.059,1.186-0.064,1.841-0.057c0.649,0.023,1.339,0.061,2.033,0.137  c0.7,0.066,1.407,0.159,2.119,0.242c0.712,0.088,1.425,0.161,2.136,0.225c0.354,0.021,0.708,0.042,1.061,0.063  c0.353,0.016,0.702,0.012,1.051,0.02c0.349,0.014,0.694-0.007,1.035-0.021c0.342-0.021,0.682-0.014,1.014-0.048  c0.664-0.078,1.315-0.097,1.926-0.206c0.611-0.094,1.203-0.143,1.738-0.256c0.537-0.106,1.039-0.179,1.482-0.254  c0.438-0.1,0.827-0.169,1.146-0.23C48.789,55.674,49.167,55.624,49.167,55.624z M14.138,41.439c0.317-0.041,0.778-0.103,1.381-0.113  c0.302-0.019,0.635-0.018,0.996-0.009c0.363-0.001,0.754,0.022,1.171,0.062c0.838,0.058,1.774,0.199,2.787,0.398  c1.008,0.212,2.099,0.467,3.221,0.815c1.126,0.336,2.306,0.711,3.5,1.141c1.193,0.422,2.425,0.86,3.678,1.302  c1.245,0.441,2.509,0.883,3.785,1.261c1.27,0.394,2.544,0.769,3.816,1.046c1.272,0.27,2.524,0.546,3.753,0.69  c1.227,0.166,2.421,0.254,3.558,0.312c0.57,0.006,1.124,0.01,1.66,0.016c0.536-0.015,1.056-0.019,1.556-0.043  c0.499-0.034,0.978-0.068,1.432-0.102c0.456-0.047,0.888-0.094,1.293-0.137c0.813-0.091,1.516-0.219,2.104-0.294  c1.16-0.22,1.835-0.331,1.835-0.331s-0.157,0.064-0.453,0.184c-0.297,0.114-0.729,0.296-1.29,0.501  c-0.569,0.173-1.253,0.431-2.062,0.629c-0.405,0.102-0.836,0.21-1.292,0.323c-0.461,0.089-0.947,0.178-1.454,0.273  c-0.51,0.081-1.044,0.144-1.597,0.221c-0.555,0.058-1.131,0.084-1.724,0.128c-1.187,0.033-2.446,0.052-3.738-0.077  c-1.294-0.104-2.627-0.282-3.958-0.565c-1.334-0.271-2.664-0.635-3.982-1.025c-1.312-0.412-2.595-0.882-3.852-1.35  c-1.258-0.465-2.463-0.987-3.638-1.455c-1.175-0.471-2.295-0.945-3.369-1.358c-1.074-0.415-2.094-0.776-3.044-1.09  c-0.955-0.288-1.835-0.555-2.63-0.723c-0.199-0.046-0.391-0.088-0.577-0.13c-0.188-0.034-0.368-0.066-0.542-0.097  c-0.347-0.069-0.667-0.125-0.958-0.155c-0.292-0.037-0.552-0.071-0.78-0.1c-0.229-0.019-0.426-0.032-0.585-0.045  c-0.317-0.028-0.487-0.043-0.487-0.043S13.822,41.479,14.138,41.439z M62.686,61.764c0.694-0.017,1.367-0.029,2-0.065  c0.636-0.028,1.239-0.04,1.799-0.048c0.281,0.002,0.547-0.014,0.801-0.027c0.255-0.011,0.497-0.02,0.724-0.028  c0.454-0.021,0.854-0.021,1.186-0.026c0.659-0.007,1.043,0.011,1.043,0.011s-0.353,0.139-0.98,0.348  c-0.314,0.104-0.696,0.232-1.139,0.36c-0.442,0.125-0.939,0.305-1.493,0.406c-0.553,0.122-1.153,0.255-1.791,0.376  c-0.638,0.131-1.312,0.231-2.015,0.313c-0.701,0.083-1.429,0.185-2.165,0.235c-0.735,0.06-1.484,0.101-2.232,0.145  c-0.748,0.033-1.491,0.062-2.226,0.076c-0.732,0.012-1.452,0.024-2.148,0.036c-0.696,0.011-1.375-0.008-2.005,0.008  c-0.635,0.009-1.236-0.001-1.796-0.01c-0.556-0.012-1.075-0.003-1.534-0.006c-0.457,0.006-0.858-0.009-1.189-0.017  c-0.66-0.019-1.041-0.05-1.041-0.05s0.36-0.126,0.995-0.31c0.317-0.09,0.703-0.205,1.147-0.314c0.443-0.115,0.94-0.256,1.501-0.344  c0.557-0.104,1.162-0.218,1.806-0.319c0.646-0.11,1.318-0.179,2.02-0.256c0.7-0.073,1.428-0.146,2.158-0.191  c0.733-0.056,1.48-0.09,2.225-0.133c0.741-0.034,1.481-0.072,2.213-0.09C61.275,61.817,61.992,61.788,62.686,61.764z M69.745,58.708  c-1.336-0.426-2.612-0.973-3.772-1.513c-0.584-0.271-1.135-0.539-1.659-0.801c-0.523-0.246-1.012-0.515-1.469-0.73  c-0.455-0.224-0.871-0.427-1.241-0.608c-0.373-0.171-0.694-0.348-0.974-0.463c-0.553-0.248-0.862-0.411-0.862-0.411  s0.35,0.009,0.951,0.059c0.302,0.02,0.667,0.072,1.086,0.148c0.427,0.064,0.894,0.162,1.397,0.291  c1.016,0.233,2.171,0.599,3.375,1.011c0.604,0.21,1.221,0.419,1.844,0.646c0.625,0.204,1.251,0.439,1.884,0.628  c0.627,0.221,1.262,0.38,1.882,0.566c0.627,0.147,1.24,0.325,1.844,0.43c0.601,0.142,1.188,0.213,1.75,0.304  c0.279,0.059,0.555,0.067,0.82,0.1c0.269,0.031,0.526,0.061,0.775,0.089c0.503,0.029,0.962,0.058,1.371,0.082  c0.413,0.036,0.771,0.018,1.072,0.029c0.599,0.012,0.953,0.038,0.953,0.038s-0.32,0.13-0.899,0.323  c-0.29,0.087-0.64,0.235-1.058,0.307c-0.414,0.088-0.887,0.205-1.41,0.271c-0.521,0.047-1.095,0.139-1.701,0.139  c-0.606-0.001-1.252,0.01-1.911-0.074c-0.665-0.049-1.339-0.177-2.023-0.31C71.096,59.1,70.407,58.931,69.745,58.708z   M71.897,53.752c-0.445,0.035-0.885,0.069-1.318,0.103c-0.429,0.041-0.86,0.031-1.279,0.035c-0.419-0.004-0.826,0.021-1.226-0.023  c-0.398-0.03-0.785-0.06-1.16-0.088c-0.373-0.027-0.73-0.111-1.074-0.161c-0.341-0.062-0.67-0.103-0.979-0.172  c-0.31-0.086-0.601-0.165-0.875-0.241c-0.272-0.075-0.527-0.142-0.759-0.214c-0.227-0.077-0.429-0.167-0.614-0.238  c-0.739-0.296-1.156-0.486-1.156-0.486s0.457,0.035,1.247,0.136c0.198,0.022,0.416,0.06,0.653,0.077  c0.239,0.007,0.492,0.026,0.762,0.042c0.269,0.016,0.554,0.033,0.854,0.051c0.304,0,0.622,0.001,0.954,0.002  c0.662,0.022,1.38-0.04,2.134-0.08c0.377-0.011,0.764-0.068,1.158-0.108c0.394-0.051,0.797-0.066,1.205-0.142  c0.409-0.062,0.824-0.122,1.245-0.186c0.42-0.075,0.845-0.153,1.271-0.231c0.429-0.068,0.86-0.171,1.293-0.256  c0.435-0.089,0.87-0.17,1.305-0.274c0.876-0.193,1.75-0.385,2.611-0.574c0.862-0.191,1.72-0.377,2.55-0.542  c0.833-0.169,1.641-0.32,2.413-0.445c0.77-0.135,1.507-0.225,2.188-0.307c0.674-0.096,1.306-0.128,1.86-0.169  c0.552-0.049,1.039-0.056,1.439-0.058c0.8-0.007,1.256,0.011,1.256,0.011s-0.439,0.143-1.203,0.352  c-0.384,0.099-0.846,0.233-1.374,0.386c-0.528,0.153-1.121,0.324-1.771,0.511c-1.295,0.38-2.806,0.823-4.424,1.298  c-0.813,0.23-1.655,0.473-2.519,0.691c-0.862,0.232-1.748,0.438-2.641,0.637c-0.895,0.186-1.793,0.368-2.692,0.491  C72.784,53.642,72.341,53.704,71.897,53.752z M60.064,42.001c0.705-4.952,4.217-8.83,7.995-8.83c0.265,0,0.531,0.019,0.794,0.057  c3.605,0.514,6.12,4.396,6.118,9.035c-4.423,0.837-9.594,1.393-15.037,1.674C59.93,43.305,59.971,42.656,60.064,42.001z   M60.4,49.457c0.517-0.083,1.047-0.17,1.589-0.256c0.539-0.109,1.092-0.202,1.652-0.305c1.126-0.177,2.269-0.474,3.444-0.69  c0.584-0.119,1.168-0.27,1.758-0.402c0.589-0.138,1.181-0.271,1.764-0.438c0.588-0.148,1.175-0.297,1.762-0.446  c0.579-0.168,1.157-0.335,1.729-0.502c1.148-0.329,2.261-0.696,3.342-1.045c1.06-0.4,2.112-0.729,3.068-1.135  c0.975-0.372,1.866-0.78,2.699-1.148c0.424-0.172,0.797-0.394,1.17-0.574c0.372-0.187,0.725-0.364,1.056-0.531  c0.64-0.377,1.196-0.705,1.656-0.977c0.869-0.611,1.393-0.957,1.393-0.957s-0.407,0.457-1.169,1.244  c-0.402,0.362-0.908,0.79-1.496,1.275c-0.619,0.436-1.305,0.966-2.106,1.444c-0.402,0.24-0.822,0.49-1.256,0.749  c-0.433,0.265-0.908,0.472-1.385,0.722c-0.949,0.504-1.988,0.944-3.065,1.398c-0.541,0.22-1.1,0.417-1.661,0.632  c-0.281,0.106-0.564,0.213-0.85,0.318c-0.29,0.092-0.58,0.184-0.873,0.273c-0.585,0.183-1.174,0.364-1.767,0.547  c-0.598,0.162-1.197,0.324-1.798,0.487c-0.601,0.162-1.208,0.287-1.813,0.416c-0.606,0.127-1.205,0.271-1.807,0.381  c-1.204,0.216-2.391,0.416-3.547,0.549c-0.577,0.07-1.143,0.152-1.701,0.205c-0.558,0.04-1.104,0.081-1.636,0.12  c-1.061,0.1-2.071,0.101-3,0.121c-0.926,0.039-1.784-0.018-2.539-0.039c-0.377-0.016-0.73-0.021-1.055-0.044  c-0.325-0.029-0.622-0.058-0.89-0.082c-1.074-0.103-1.689-0.182-1.689-0.182s0.615-0.079,1.689-0.182  c0.268-0.024,0.565-0.052,0.89-0.082c0.32-0.039,0.668-0.081,1.039-0.126c0.74-0.096,1.571-0.17,2.48-0.309  C58.385,49.756,59.367,49.634,60.4,49.457z M50.277,31.22c4.115,0,7.466,4.452,7.466,9.925c0,1.01-0.115,1.986-0.328,2.905  c-2.007,0.07-4.04,0.106-6.076,0.106c-2.752,0-5.51-0.065-8.218-0.195c-0.199-0.894-0.308-1.838-0.308-2.816  C42.812,35.672,46.161,31.22,50.277,31.22z M31.701,33.228c0.262-0.038,0.529-0.057,0.794-0.057c3.778,0,7.291,3.878,7.996,8.83  c0.087,0.616,0.125,1.222,0.126,1.819c-3.505-0.225-6.89-0.56-10.036-1.004c-0.517-0.178-1.031-0.358-1.541-0.542  c-1.157-0.414-2.292-0.82-3.4-1.217C26.035,36.967,28.413,33.696,31.701,33.228z M9.676,42.812c0.253,0.157,0.567,0.348,0.922,0.537  c0.361,0.19,0.741,0.428,1.19,0.64c0.22,0.111,0.448,0.226,0.686,0.344c0.241,0.105,0.49,0.214,0.747,0.327  c0.127,0.058,0.255,0.114,0.385,0.174c0.134,0.05,0.27,0.101,0.406,0.152c0.278,0.095,0.544,0.223,0.835,0.312  c0.29,0.091,0.581,0.191,0.874,0.291c0.302,0.088,0.606,0.177,0.914,0.267c0.621,0.168,1.25,0.344,1.898,0.499  c0.647,0.166,1.295,0.336,1.932,0.499c0.644,0.167,1.274,0.353,1.885,0.542c0.61,0.18,1.195,0.4,1.747,0.597  c0.55,0.209,1.062,0.432,1.533,0.635c0.468,0.214,0.889,0.429,1.26,0.617c0.374,0.183,0.683,0.385,0.942,0.534  c0.515,0.307,0.799,0.502,0.799,0.502s-0.345-0.047-0.929-0.163c-0.291-0.059-0.643-0.13-1.048-0.213  c-0.406-0.075-0.861-0.161-1.348-0.275c-0.495-0.092-1.029-0.193-1.589-0.311c-0.563-0.111-1.155-0.228-1.769-0.349  c-0.612-0.123-1.25-0.248-1.896-0.388c-0.65-0.137-1.307-0.284-1.972-0.453c-0.66-0.169-1.327-0.36-1.974-0.58  c-0.324-0.113-0.645-0.229-0.958-0.35c-0.31-0.136-0.617-0.272-0.918-0.404c-0.3-0.134-0.583-0.297-0.862-0.448  c-0.281-0.146-0.549-0.303-0.797-0.479c-0.25-0.169-0.499-0.321-0.726-0.491c-0.22-0.179-0.431-0.351-0.635-0.517  c-0.417-0.311-0.747-0.674-1.048-0.97c-0.311-0.289-0.532-0.573-0.722-0.806c-0.378-0.464-0.58-0.744-0.58-0.744  S9.165,42.502,9.676,42.812z M9.24,47.38c0,0,0.371,0.131,1.001,0.395c0.625,0.254,1.519,0.617,2.591,1.054  c0.535,0.208,1.114,0.433,1.726,0.67c0.612,0.233,1.254,0.479,1.925,0.713c0.665,0.253,1.366,0.463,2.065,0.709  c0.711,0.207,1.424,0.451,2.153,0.633c0.719,0.221,1.454,0.365,2.169,0.553c0.724,0.129,1.43,0.319,2.126,0.411  c0.348,0.059,0.689,0.116,1.023,0.172c0.337,0.041,0.667,0.08,0.987,0.119c0.643,0.097,1.254,0.125,1.823,0.181  c0.284,0.03,0.556,0.041,0.816,0.046c0.261,0.011,0.509,0.021,0.741,0.031c0.468,0.027,0.877,0.027,1.215,0.022  c0.676-0.002,1.074,0.017,1.074,0.017s-0.364,0.138-1.021,0.344c-0.329,0.104-0.729,0.234-1.202,0.315  c-0.47,0.087-1.003,0.234-1.593,0.275c-0.588,0.061-1.233,0.153-1.914,0.146c-0.342,0.003-0.693,0.008-1.051,0.012  c-0.358-0.022-0.723-0.045-1.094-0.067c-0.186-0.013-0.374-0.026-0.563-0.038c-0.187-0.025-0.376-0.051-0.565-0.077  c-0.38-0.051-0.765-0.1-1.15-0.166c-0.765-0.155-1.546-0.308-2.307-0.53c-0.767-0.202-1.514-0.463-2.248-0.722  c-0.365-0.136-0.72-0.287-1.072-0.432c-0.354-0.14-0.697-0.294-1.029-0.456c-0.673-0.305-1.302-0.642-1.893-0.968  c-0.591-0.326-1.129-0.67-1.625-0.985c-0.984-0.64-1.767-1.24-2.294-1.672C9.529,47.646,9.24,47.38,9.24,47.38z M15.227,55.664  c-0.839-0.487-1.569-0.911-2.17-1.26c-0.605-0.342-1.081-0.613-1.404-0.798c-0.328-0.177-0.503-0.272-0.503-0.272  s0.188,0.067,0.54,0.192c0.35,0.131,0.868,0.314,1.513,0.579c0.644,0.268,1.429,0.59,2.315,0.982  c0.886,0.388,1.886,0.827,2.977,1.305c1.086,0.481,2.273,0.974,3.529,1.477c1.254,0.505,2.592,0.994,3.989,1.437  c1.391,0.46,2.849,0.857,4.343,1.177c1.494,0.299,3.033,0.571,4.555,0.678l0.594,0.039l0.564,0.018c0.37,0.019,0.757,0,1.136,0.006  c0.761-0.015,1.519-0.054,2.271-0.133c1.503-0.16,2.978-0.454,4.421-0.753c1.442-0.307,2.848-0.654,4.214-0.892  c1.36-0.25,2.675-0.427,3.896-0.475c1.219-0.058,2.341-0.012,3.319,0.113c0.981,0.119,1.822,0.287,2.503,0.464  c0.682,0.174,1.206,0.34,1.56,0.466c0.354,0.125,0.541,0.19,0.541,0.19s-0.196-0.027-0.567-0.079  c-0.369-0.061-0.913-0.119-1.6-0.188c-0.688-0.062-1.524-0.101-2.477-0.1c-0.952,0.015-2.022,0.08-3.175,0.251  c-1.152,0.18-2.39,0.424-3.693,0.765c-1.315,0.354-2.703,0.729-4.136,1.114c-1.454,0.389-3.001,0.715-4.606,0.907  c-0.803,0.096-1.618,0.151-2.44,0.179c-0.412-0.003-0.817,0.004-1.24-0.021l-0.626-0.029l-0.594-0.05  c-1.646-0.146-3.246-0.415-4.804-0.799c-1.551-0.391-3.051-0.86-4.47-1.389c-2.832-1.078-5.341-2.344-7.438-3.495  C17.012,56.701,16.069,56.144,15.227,55.664z M48.302,66.602c-0.642,0.119-1.37,0.252-2.167,0.375  c-0.8,0.107-1.669,0.204-2.591,0.292c-0.925,0.047-1.902,0.131-2.915,0.131c-1.013-0.004-2.062,0-3.124-0.092  c-1.066-0.044-2.139-0.202-3.216-0.327c-1.067-0.188-2.139-0.351-3.175-0.609c-0.521-0.116-1.035-0.236-1.536-0.386  c-0.502-0.144-1.001-0.273-1.483-0.43c-0.965-0.312-1.887-0.638-2.747-0.985c-0.87-0.317-1.658-0.703-2.396-1.026  c-1.457-0.688-2.637-1.336-3.445-1.809c-0.806-0.477-1.258-0.768-1.258-0.768s0.517,0.146,1.407,0.438  c0.887,0.28,2.153,0.682,3.673,1.161c0.766,0.214,1.581,0.477,2.454,0.713c0.868,0.255,1.796,0.469,2.747,0.715  c0.959,0.214,1.942,0.458,2.955,0.641c1.007,0.213,2.041,0.362,3.07,0.534c1.036,0.127,2.069,0.285,3.095,0.368  c0.513,0.04,1.019,0.115,1.524,0.139c0.504,0.033,1.002,0.067,1.493,0.1c0.981,0.059,1.933,0.08,2.836,0.126  c0.903-0.007,1.762,0.016,2.555,0.026c0.792-0.021,1.521-0.023,2.169-0.023c0.648-0.002,1.211-0.033,1.679-0.039  c0.934-0.021,1.474-0.012,1.474-0.012s-0.514,0.148-1.426,0.374C49.498,66.332,48.945,66.493,48.302,66.602z M80.548,61.541  c-0.78,0.45-1.903,1.082-3.274,1.794c-0.698,0.331-1.458,0.684-2.271,1.037c-0.405,0.179-0.822,0.363-1.25,0.552  c-0.211,0.095-0.428,0.191-0.648,0.279c-0.224,0.08-0.45,0.163-0.679,0.243c-0.914,0.326-1.863,0.658-2.831,0.979  c-0.976,0.301-1.993,0.527-2.999,0.789c-1.004,0.274-2.037,0.403-3.044,0.575c-0.504,0.081-1.006,0.163-1.501,0.23  c-0.497,0.044-0.989,0.087-1.472,0.132c-0.966,0.072-1.9,0.168-2.786,0.176c-0.886,0.029-1.725,0.034-2.496,0.036  c-0.773,0.019-1.477-0.018-2.103-0.04c-0.625-0.018-1.171-0.053-1.62-0.077c-0.899-0.052-1.415-0.103-1.415-0.103  s0.506-0.108,1.394-0.259c0.884-0.159,2.161-0.338,3.675-0.564c0.757-0.117,1.575-0.244,2.442-0.351  c0.434-0.051,0.877-0.121,1.325-0.204c0.452-0.08,0.913-0.148,1.382-0.223c0.468-0.07,0.945-0.143,1.426-0.216  c0.478-0.095,0.96-0.189,1.445-0.288c0.97-0.206,1.97-0.335,2.939-0.611c0.974-0.245,1.958-0.457,2.915-0.711  c0.949-0.287,1.89-0.556,2.802-0.811c0.229-0.063,0.456-0.126,0.68-0.188c0.222-0.072,0.442-0.145,0.658-0.217  c0.437-0.14,0.862-0.276,1.277-0.41c0.828-0.274,1.621-0.512,2.355-0.73c1.442-0.508,2.663-0.892,3.525-1.154  c0.861-0.262,1.363-0.392,1.363-0.392S81.329,61.091,80.548,61.541z M90.867,51.528c-0.18,0.189-0.403,0.415-0.674,0.662  c-0.278,0.229-0.589,0.508-0.958,0.762c-0.365,0.259-0.771,0.53-1.216,0.779c-0.441,0.267-0.925,0.497-1.429,0.742  c-0.509,0.222-1.035,0.46-1.586,0.647c-0.545,0.21-1.114,0.372-1.681,0.543c-0.572,0.146-1.144,0.3-1.715,0.406  c-0.568,0.114-1.133,0.211-1.683,0.273c-0.546,0.08-1.08,0.114-1.585,0.148c-0.505,0.036-0.985,0.027-1.428,0.032  c-0.44,0.002-0.852-0.037-1.21-0.058c-0.36-0.015-0.668-0.065-0.923-0.099c-0.511-0.071-0.804-0.134-0.804-0.134  s0.283-0.097,0.78-0.229c0.493-0.126,1.193-0.311,2.034-0.53c0.829-0.211,1.796-0.458,2.832-0.722  c0.258-0.065,0.52-0.132,0.784-0.199c0.264-0.073,0.53-0.146,0.8-0.212c0.536-0.146,1.079-0.294,1.624-0.443  c0.541-0.152,1.085-0.305,1.614-0.466c0.529-0.16,1.051-0.32,1.555-0.474c0.496-0.172,0.991-0.312,1.442-0.48  c0.462-0.151,0.89-0.313,1.288-0.461c0.4-0.145,0.757-0.298,1.087-0.42c0.313-0.147,0.601-0.26,0.834-0.362  c0.45-0.225,0.73-0.345,0.73-0.345S91.21,51.129,90.867,51.528z"/>
</svg>