<svg xmlns="http://www.w3.org/2000/svg" xmlns:xlink="http://www.w3.org/1999/xlink" version="1.1" id="Layer_1" x="0px" y="0px" width="91.852px" height="100px" viewBox="0 0 91.852 100" enable-background="new 0 0 91.852 100" xml:space="preserve">
<g>
	<path d="M36.254,49.19l15.575-25.139l-14.712-0.007c-5.445,0-9.923,4.441-9.923,9.983v23.62c0,4.59,6.065,4.59,6.065,0V34.659   h2.997L36.254,49.19z"/>
	<path d="M36.251,52.807l-0.004,42.88c0,2.38,1.933,4.313,4.312,4.313c2.384,0,4.315-1.934,4.315-4.313l0.004-34.829H47.9   l-0.011,34.829c0,2.38,1.931,4.313,4.312,4.313c2.383,0,4.312-1.934,4.312-4.313l0.013-42.88H36.251z"/>
	<path d="M56.973,24.166L41.977,48.373h14.55l0.005-13.714h2.848v22.989c0,4.623,6.031,4.623,6.019,0v-23.48   C65.398,29.504,62.098,24.926,56.973,24.166z"/>
</g>
<g>
	<path d="M41.141,10.267V8.468h3.896c-0.681-0.605-1.131-1.653-1.131-2.846c0-1.877,1.111-3.398,2.479-3.398   c1.37,0,2.48,1.521,2.48,3.398c0,1.193-0.45,2.241-1.128,2.846h3.872v1.799h4.919c0.591-0.889,0.925-1.868,0.925-2.901   c0-4.005-4.954-7.254-11.068-7.254c-6.112,0-11.065,3.249-11.065,7.254c0,1.033,0.331,2.013,0.925,2.901H41.141z"/>
	<path d="M35.887,12.547v2.351h2.779c0.075,4.182,3.485,7.551,7.687,7.551c4.199,0,7.608-3.369,7.687-7.551h2.419v-2.351H35.887z"/>
</g>
</svg>