<svg xmlns:sodipodi="http://sodipodi.sourceforge.net/DTD/sodipodi-0.dtd" xmlns:svg="http://www.w3.org/2000/svg" xmlns:dc="http://purl.org/dc/elements/1.1/" xmlns:inkscape="http://www.inkscape.org/namespaces/inkscape" xmlns:cc="http://creativecommons.org/ns#" xmlns:rdf="http://www.w3.org/1999/02/22-rdf-syntax-ns#" xmlns="http://www.w3.org/2000/svg" xmlns:xlink="http://www.w3.org/1999/xlink" version="1.1" id="svg3069" inkscape:version="0.48.2 r9819" sodipodi:docname="forsale.svg" x="0px" y="0px" width="91.667px" height="100px" viewBox="0.0 0.0 100 100.0" enable-background="new 0.012 -0.267 91.667 100" xml:space="preserve">
<g id="layer1" inkscape:groupmode="layer" inkscape:label="Layer 1">
	<g id="g3019" transform="matrix(16.670996,0,0,16.670996,-66.683984,-35.025224)">

			<rect id="rect3021" x="5.374" y="2.843" transform="matrix(-0.4957 -0.8685 0.8685 -0.4957 5.7969 9.2189)" width="0.403" height="0.167"/>
	</g>
	<g id="g3023" transform="matrix(16.670996,0,0,16.670996,-66.683984,-35.025224)">

			<rect id="rect3025" x="8.333" y="2.732" transform="matrix(-0.9029 -0.4298 0.4298 -0.9029 14.7579 9.1859)" width="0.167" height="0.388"/>
	</g>
	<g id="g3027" transform="matrix(16.670996,0,0,16.670996,-66.683984,-35.025224)">
		<polygon id="polygon3029" points="6,4.434 7.008,3.451 8.012,4.438 7.783,4.438 7.783,5.351 7.267,5.351 7.267,4.601 6.783,4.601     6.783,5.351 6.233,5.351 6.233,4.434   "/>
	</g>
	<g id="g3031" transform="matrix(16.670996,0,0,16.670996,-66.683984,-35.025224)">
		<polygon id="polygon3033" points="9.333,2.751 9.499,2.585 9.333,2.418 4.167,2.418 4.001,2.585 4.167,2.751   "/>
	</g>
	<g id="g3035" transform="matrix(16.670996,0,0,16.670996,-66.683984,-35.025224)">
		<path id="path3037" inkscape:connector-curvature="0" d="M8.999,5.917H5V2.918h3.999V5.917z M5.334,5.584h3.332V3.251H5.334V5.584    z"/>
	</g>
	<g id="g3039" transform="matrix(16.670996,0,0,16.670996,-66.683984,-35.025224)">
		<polygon id="polygon3041" points="4.501,2.085 4.667,2.252 4.667,8.083 4.334,8.083 4.334,2.252   "/>
	</g>
</g></svg>