<?xml version="1.0" encoding="utf-8"?>
<svg version="1.1" x="0px" y="0px" viewBox="0 0 100 100" enable-background="new 0 0 100 100" xmlns="http://www.w3.org/2000/svg">
  <path d="M94.9,70.9L82.8,34.6c1.3-0.6,2.2-1.9,2.2-3.4V30h-2.5v1.3c0,0.7-0.5,1.2-1.2,1.2s-1.2-0.5-1.2-1.2V30H58.6  c-0.3-2.3-1.6-4.3-3.4-5.7c0.9-5.6,5.7-9.8,11.5-9.8l0.9-2.1C63,7.6,56.7,5,50,5s-13,2.6-17.7,7.3l0.9,2.1h0.1  c5.8,0,10.6,4.2,11.5,9.8c-1.8,1.4-3.1,3.4-3.5,5.8H19.9v1.3c0,0.7-0.5,1.2-1.2,1.2s-1.2-0.5-1.2-1.2V30H15v1.3  c0,1.5,0.9,2.7,2.1,3.3l-12,36.3L5.2,71L5,71.3c0,3.4,2.8,6.3,6.3,6.3h15c3.4,0,6.3-2.8,6.3-6.3L32.3,71l0.1-0.2L20.3,34.5  c0.9-0.4,1.6-1.2,1.9-2.1h19.1c0.3,2.5,1.7,4.6,3.7,6v49.1H22.5V95h55v-7.5H55V38.4c1.9-1.4,3.3-3.5,3.7-6h19.1  c0.3,0.9,1,1.6,1.8,2.1l-12,36.3l0.1,0.2l-0.2,0.2c0,3.4,2.8,6.3,6.3,6.3h15c3.4,0,6.3-2.8,6.3-6.3L94.8,71L94.9,70.9z M26.3,75h-15  c-1.6,0-3-1-3.5-2.5h22.1C29.3,74,27.9,75,26.3,75z M29.5,70H8l10.7-32.4L29.5,70z M36.2,12.2c3.9-3.1,8.8-4.7,13.8-4.7  c5.1,0,9.9,1.7,13.9,4.8C58.5,13.4,54.2,17.7,53,23c-0.6-0.2-1.1-0.3-1.7-0.4V11.3h-2.5v11.3c-0.6,0.1-1.1,0.2-1.6,0.4  C45.9,17.6,41.6,13.4,36.2,12.2z M75,90v2.5H25V90H75z M47.5,87.5V39.6c0.8,0.2,1.6,0.4,2.5,0.4s1.7-0.1,2.5-0.4v47.9H47.5z   M50,37.5c-3.4,0-6.3-2.8-6.3-6.3S46.6,25,50,25s6.3,2.8,6.3,6.3S53.4,37.5,50,37.5z M81.2,37.6L92,70H70.5L81.2,37.6z M88.8,75h-15  c-1.6,0-3-1-3.5-2.5h22.1C91.8,74,90.4,75,88.8,75z"/>
</svg>