<svg xmlns="http://www.w3.org/2000/svg" xmlns:xlink="http://www.w3.org/1999/xlink" xmlns:a="http://ns.adobe.com/AdobeSVGViewerExtensions/3.0/" version="1.1" x="0px" y="0px" width="100px" height="100px" viewBox="-3 -10 100.0 100.0" overflow="visible" enable-background="new -1.669 -15.75 100 100" xml:space="preserve">
<defs>
</defs>
<path fill="#000000" d="M0,0v72.445h95.425V0H0z M79.007,3.345h2.503c0.297,0,0.538,0.241,0.538,0.538  c0,0.297-0.241,0.538-0.538,0.538h-2.503c-0.297,0-0.537-0.24-0.537-0.538C78.47,3.585,78.71,3.345,79.007,3.345z M12.436,49.152  h71.286v2.711H12.436V49.152z M9.375,16.268c0-4.025,3.263-7.289,7.289-7.289c4.025,0,7.289,3.263,7.289,7.289  c0,4.025-3.264,7.289-7.289,7.289C12.638,23.557,9.375,20.293,9.375,16.268z M12.436,46.107v-1.578h71.286v1.578H12.436z   M12.436,40.015V38.07h71.286v1.944H12.436z M12.436,33.983v-5.459h71.286v5.459H12.436z M74,3.345h2.503  c0.297,0,0.538,0.241,0.538,0.538c0,0.297-0.241,0.538-0.538,0.538H74c-0.297,0-0.537-0.24-0.537-0.538  C73.463,3.585,73.704,3.345,74,3.345z M68.993,3.345h2.504c0.298,0,0.538,0.241,0.538,0.538c0,0.297-0.24,0.538-0.538,0.538h-2.504  c-0.297,0-0.537-0.24-0.537-0.538C68.456,3.585,68.696,3.345,68.993,3.345z M63.986,3.345h2.504c0.298,0,0.538,0.241,0.538,0.538  c0,0.297-0.24,0.538-0.538,0.538h-2.504c-0.297,0-0.537-0.24-0.537-0.538C63.449,3.585,63.689,3.345,63.986,3.345z M58.979,3.345  h2.504c0.298,0,0.538,0.241,0.538,0.538c0,0.297-0.24,0.538-0.538,0.538h-2.504c-0.297,0-0.537-0.24-0.537-0.538  C58.442,3.585,58.682,3.345,58.979,3.345z M53.973,3.345h2.502c0.298,0,0.538,0.241,0.538,0.538c0,0.297-0.24,0.538-0.538,0.538  h-2.502c-0.298,0-0.538-0.24-0.538-0.538C53.435,3.585,53.675,3.345,53.973,3.345z M48.965,3.345h2.504  c0.297,0,0.537,0.241,0.537,0.538c0,0.297-0.24,0.538-0.537,0.538h-2.504c-0.297,0-0.537-0.24-0.537-0.538  C48.428,3.585,48.668,3.345,48.965,3.345z M43.958,3.345h2.503C46.759,3.345,47,3.585,47,3.882c0,0.297-0.24,0.538-0.538,0.538  h-2.503c-0.297,0-0.538-0.24-0.538-0.538C43.421,3.585,43.662,3.345,43.958,3.345z M38.951,3.345h2.504  c0.297,0,0.538,0.241,0.538,0.538c0,0.297-0.24,0.538-0.538,0.538h-2.504c-0.297,0-0.538-0.24-0.538-0.538  C38.414,3.585,38.654,3.345,38.951,3.345z M33.944,3.345h2.503c0.297,0,0.538,0.241,0.538,0.538c0,0.297-0.24,0.538-0.538,0.538  h-2.503c-0.297,0-0.537-0.24-0.537-0.538C33.407,3.585,33.647,3.345,33.944,3.345z M28.938,3.345h2.503  c0.297,0,0.537,0.241,0.537,0.538c0,0.297-0.24,0.538-0.537,0.538h-2.503c-0.297,0-0.538-0.24-0.538-0.538  C28.4,3.585,28.641,3.345,28.938,3.345z M27.397,8.979h44.299v2.429H27.397V8.979z M67.72,15.053v2.43H31.372v-2.43H67.72z   M27.397,22.438h44.299v2.512H27.397V22.438z M23.931,3.345h2.503c0.297,0,0.538,0.241,0.538,0.538c0,0.297-0.241,0.538-0.538,0.538  h-2.503c-0.297,0-0.538-0.24-0.538-0.538C23.393,3.585,23.633,3.345,23.931,3.345z M18.924,3.345h2.503  c0.297,0,0.538,0.241,0.538,0.538c0,0.297-0.241,0.538-0.538,0.538h-2.503c-0.297,0-0.538-0.24-0.538-0.538  C18.386,3.585,18.626,3.345,18.924,3.345z M13.917,3.345h2.504c0.297,0,0.538,0.241,0.538,0.538c0,0.297-0.241,0.538-0.538,0.538  h-2.504c-0.297,0-0.538-0.24-0.538-0.538C13.379,3.585,13.619,3.345,13.917,3.345z M4.579,7.656c0-0.297,0.24-0.538,0.538-0.538  c0.297,0,0.538,0.24,0.538,0.538v2.484c0,0.297-0.241,0.538-0.538,0.538c-0.297,0-0.538-0.241-0.538-0.538V7.656z M4.579,12.625  c0-0.297,0.24-0.538,0.538-0.538c0.297,0,0.538,0.241,0.538,0.538v2.484c0,0.297-0.241,0.538-0.538,0.538  c-0.297,0-0.538-0.24-0.538-0.538V12.625z M4.579,17.592c0-0.297,0.24-0.538,0.538-0.538c0.297,0,0.538,0.241,0.538,0.538v2.484  c0,0.297-0.241,0.538-0.538,0.538c-0.297,0-0.538-0.24-0.538-0.538V17.592z M4.579,22.561c0-0.297,0.24-0.538,0.538-0.538  c0.297,0,0.538,0.24,0.538,0.538v2.484c0,0.297-0.241,0.538-0.538,0.538c-0.297,0-0.538-0.241-0.538-0.538V22.561z M4.579,27.528  c0-0.297,0.24-0.538,0.538-0.538c0.297,0,0.538,0.24,0.538,0.538v2.484c0,0.297-0.241,0.538-0.538,0.538  c-0.297,0-0.538-0.24-0.538-0.538V27.528z M4.579,32.496c0-0.297,0.24-0.538,0.538-0.538c0.297,0,0.538,0.241,0.538,0.538v2.484  c0,0.297-0.241,0.538-0.538,0.538c-0.297,0-0.538-0.241-0.538-0.538V32.496z M4.579,37.465c0-0.297,0.24-0.538,0.538-0.538  c0.297,0,0.538,0.241,0.538,0.538v2.483c0,0.298-0.241,0.538-0.538,0.538c-0.297,0-0.538-0.24-0.538-0.538V37.465z M4.579,42.433  c0-0.297,0.24-0.538,0.538-0.538c0.297,0,0.538,0.241,0.538,0.538v2.483c0,0.298-0.241,0.538-0.538,0.538  c-0.297,0-0.538-0.24-0.538-0.538V42.433z M4.579,47.4c0-0.297,0.24-0.537,0.538-0.537c0.297,0,0.538,0.24,0.538,0.537v2.484  c0,0.297-0.241,0.537-0.538,0.537c-0.297,0-0.538-0.24-0.538-0.537V47.4z M4.579,52.368c0-0.297,0.24-0.537,0.538-0.537  c0.297,0,0.538,0.24,0.538,0.537v2.484c0,0.297-0.241,0.537-0.538,0.537c-0.297,0-0.538-0.24-0.538-0.537V52.368z M4.579,57.336  c0-0.297,0.24-0.537,0.538-0.537c0.297,0,0.538,0.24,0.538,0.537v2.484c0,0.297-0.241,0.537-0.538,0.537  c-0.297,0-0.538-0.24-0.538-0.537V57.336z M4.579,62.305c0-0.298,0.24-0.538,0.538-0.538c0.297,0,0.538,0.24,0.538,0.538v2.483  c0,0.297-0.241,0.538-0.538,0.538c-0.297,0-0.538-0.241-0.538-0.538V62.305z M6.406,69.1h-1.29c-0.297,0-0.538-0.24-0.538-0.537  v-1.29c0-0.298,0.24-0.538,0.538-0.538c0.297,0,0.538,0.24,0.538,0.538v0.752h0.752c0.297,0,0.538,0.241,0.538,0.538  S6.704,69.1,6.406,69.1z M6.406,4.42H5.654v0.753c0,0.297-0.241,0.537-0.538,0.537c-0.297,0-0.538-0.24-0.538-0.537V3.882  c0-0.297,0.24-0.538,0.538-0.538h1.29c0.297,0,0.538,0.241,0.538,0.538C6.944,4.18,6.704,4.42,6.406,4.42z M8.91,3.345h2.503  c0.297,0,0.538,0.241,0.538,0.538c0,0.297-0.24,0.538-0.538,0.538H8.91c-0.297,0-0.538-0.24-0.538-0.538  C8.372,3.585,8.613,3.345,8.91,3.345z M11.414,69.1H8.91c-0.297,0-0.538-0.24-0.538-0.537s0.241-0.538,0.538-0.538h2.503  c0.297,0,0.538,0.241,0.538,0.538S11.711,69.1,11.414,69.1z M16.42,69.1h-2.503c-0.297,0-0.538-0.24-0.538-0.537  s0.241-0.538,0.538-0.538h2.503c0.297,0,0.538,0.241,0.538,0.538S16.717,69.1,16.42,69.1z M21.428,69.1h-2.504  c-0.297,0-0.538-0.24-0.538-0.537s0.24-0.538,0.538-0.538h2.504c0.297,0,0.538,0.241,0.538,0.538S21.725,69.1,21.428,69.1z   M26.435,69.1h-2.503c-0.297,0-0.538-0.24-0.538-0.537s0.24-0.538,0.538-0.538h2.503c0.297,0,0.538,0.241,0.538,0.538  S26.731,69.1,26.435,69.1z M31.441,69.1h-2.503c-0.297,0-0.538-0.24-0.538-0.537s0.24-0.538,0.538-0.538h2.503  c0.297,0,0.537,0.241,0.537,0.538S31.738,69.1,31.441,69.1z M33.326,62.95h-20.89v-1.411h20.89V62.95z M33.326,60.081h-20.89V58.67  h20.89V60.081z M36.448,69.1h-2.503c-0.297,0-0.538-0.24-0.538-0.537s0.24-0.538,0.538-0.538h2.503c0.297,0,0.538,0.241,0.538,0.538  S36.746,69.1,36.448,69.1z M41.455,69.1h-2.503c-0.297,0-0.537-0.24-0.537-0.537s0.24-0.538,0.537-0.538h2.503  c0.297,0,0.538,0.241,0.538,0.538S41.752,69.1,41.455,69.1z M46.462,69.1h-2.503c-0.297,0-0.538-0.24-0.538-0.537  s0.241-0.538,0.538-0.538h2.503c0.297,0,0.538,0.241,0.538,0.538S46.76,69.1,46.462,69.1z M51.47,69.1h-2.505  c-0.297,0-0.537-0.24-0.537-0.537s0.24-0.538,0.537-0.538h2.505c0.297,0,0.537,0.241,0.537,0.538S51.767,69.1,51.47,69.1z   M56.477,69.1h-2.504c-0.298,0-0.538-0.24-0.538-0.537s0.24-0.538,0.538-0.538h2.504c0.297,0,0.537,0.241,0.537,0.538  S56.774,69.1,56.477,69.1z M61.483,69.1h-2.504c-0.297,0-0.537-0.24-0.537-0.537s0.24-0.538,0.537-0.538h2.504  c0.298,0,0.538,0.241,0.538,0.538S61.781,69.1,61.483,69.1z M66.49,69.1h-2.503c-0.297,0-0.537-0.24-0.537-0.537  s0.24-0.538,0.537-0.538h2.503c0.298,0,0.538,0.241,0.538,0.538S66.788,69.1,66.49,69.1z M71.497,69.1h-2.503  c-0.297,0-0.537-0.24-0.537-0.537s0.24-0.538,0.537-0.538h2.503c0.298,0,0.538,0.241,0.538,0.538S71.794,69.1,71.497,69.1z   M76.504,69.1H74c-0.297,0-0.537-0.24-0.537-0.537s0.24-0.538,0.537-0.538h2.504c0.298,0,0.538,0.241,0.538,0.538  S76.802,69.1,76.504,69.1z M71.295,60.081c0-3.433,2.782-6.215,6.214-6.215c3.431,0,6.214,2.782,6.214,6.215  c0,3.432-2.783,6.214-6.214,6.214C74.078,66.295,71.295,63.513,71.295,60.081z M81.511,69.1h-2.504c-0.297,0-0.537-0.24-0.537-0.537  s0.24-0.538,0.537-0.538h2.504c0.297,0,0.538,0.241,0.538,0.538S81.808,69.1,81.511,69.1z M86.518,69.1h-2.504  c-0.297,0-0.537-0.24-0.537-0.537s0.24-0.538,0.537-0.538h2.504c0.297,0,0.538,0.241,0.538,0.538S86.815,69.1,86.518,69.1z   M86.518,4.42h-2.504c-0.297,0-0.537-0.24-0.537-0.538c0-0.297,0.24-0.538,0.537-0.538h2.504c0.297,0,0.538,0.241,0.538,0.538  C87.056,4.18,86.815,4.42,86.518,4.42z M90.849,68.562c0,0.297-0.24,0.537-0.538,0.537h-1.29c-0.297,0-0.537-0.24-0.537-0.537  s0.24-0.538,0.537-0.538h0.753v-0.752c0-0.298,0.24-0.538,0.537-0.538c0.298,0,0.538,0.24,0.538,0.538V68.562z M90.849,64.788  c0,0.297-0.24,0.538-0.538,0.538c-0.297,0-0.537-0.241-0.537-0.538v-2.483c0-0.298,0.24-0.538,0.537-0.538  c0.298,0,0.538,0.24,0.538,0.538V64.788z M90.849,59.82c0,0.297-0.24,0.537-0.538,0.537c-0.297,0-0.537-0.24-0.537-0.537v-2.484  c0-0.297,0.24-0.537,0.537-0.537c0.298,0,0.538,0.24,0.538,0.537V59.82z M90.849,54.853c0,0.297-0.24,0.537-0.538,0.537  c-0.297,0-0.537-0.24-0.537-0.537v-2.484c0-0.297,0.24-0.537,0.537-0.537c0.298,0,0.538,0.24,0.538,0.537V54.853z M90.849,49.885  c0,0.297-0.24,0.537-0.538,0.537c-0.297,0-0.537-0.24-0.537-0.537V47.4c0-0.297,0.24-0.537,0.537-0.537  c0.298,0,0.538,0.24,0.538,0.537V49.885z M90.849,44.916c0,0.298-0.24,0.538-0.538,0.538c-0.297,0-0.537-0.24-0.537-0.538v-2.483  c0-0.297,0.24-0.538,0.537-0.538c0.298,0,0.538,0.241,0.538,0.538V44.916z M90.849,39.948c0,0.298-0.24,0.538-0.538,0.538  c-0.297,0-0.537-0.24-0.537-0.538v-2.483c0-0.297,0.24-0.538,0.537-0.538c0.298,0,0.538,0.241,0.538,0.538V39.948z M90.849,34.98  c0,0.297-0.24,0.538-0.538,0.538c-0.297,0-0.537-0.241-0.537-0.538v-2.484c0-0.297,0.24-0.538,0.537-0.538  c0.298,0,0.538,0.241,0.538,0.538V34.98z M90.849,30.013c0,0.297-0.24,0.538-0.538,0.538c-0.297,0-0.537-0.24-0.537-0.538v-2.484  c0-0.297,0.24-0.538,0.537-0.538c0.298,0,0.538,0.24,0.538,0.538V30.013z M90.849,25.045c0,0.297-0.24,0.538-0.538,0.538  c-0.297,0-0.537-0.241-0.537-0.538v-2.484c0-0.297,0.24-0.538,0.537-0.538c0.298,0,0.538,0.24,0.538,0.538V25.045z M90.849,20.076  c0,0.297-0.24,0.538-0.538,0.538c-0.297,0-0.537-0.24-0.537-0.538v-2.484c0-0.297,0.24-0.538,0.537-0.538  c0.298,0,0.538,0.241,0.538,0.538V20.076z M90.849,15.108c0,0.297-0.24,0.538-0.538,0.538c-0.297,0-0.537-0.24-0.537-0.538v-2.484  c0-0.297,0.24-0.538,0.537-0.538c0.298,0,0.538,0.241,0.538,0.538V15.108z M90.849,10.141c0,0.297-0.24,0.538-0.538,0.538  c-0.297,0-0.537-0.241-0.537-0.538V7.657c0-0.297,0.24-0.538,0.537-0.538c0.298,0,0.538,0.24,0.538,0.538V10.141z M90.849,5.173  c0,0.297-0.24,0.537-0.538,0.537c-0.297,0-0.537-0.24-0.537-0.537V4.42h-0.753c-0.297,0-0.537-0.24-0.537-0.538  c0-0.297,0.24-0.538,0.537-0.538h1.29c0.298,0,0.538,0.241,0.538,0.538V5.173z"/>
<path fill="#000000" d="M15.981,21.676v-1.235c-0.871-0.039-1.716-0.273-2.21-0.559l0.39-1.521c0.546,0.299,1.313,0.572,2.158,0.572  c0.741,0,1.248-0.286,1.248-0.806c0-0.494-0.416-0.806-1.378-1.131c-1.391-0.468-2.34-1.118-2.34-2.379  c0-1.144,0.806-2.041,2.197-2.314v-1.235h1.274v1.144c0.871,0.039,1.456,0.221,1.885,0.429l-0.377,1.469  c-0.338-0.143-0.937-0.442-1.872-0.442c-0.845,0-1.118,0.364-1.118,0.728c0,0.429,0.455,0.702,1.56,1.118  c1.547,0.546,2.171,1.261,2.171,2.431c0,1.157-0.819,2.145-2.314,2.405v1.326H15.981z"/>
</svg>